# This file uses centimeters as units for non-parametric coordinates.

mtllib Wall.mtl
g default
v 1.316581 -0.000000 -4.052019
v 1.430833 0.640388 -4.403651
v -1.430833 0.640388 -4.403651
v -1.316581 -0.000000 -4.052019
v 1.659337 0.640388 -5.106916
v -1.659338 0.640388 -5.106915
v 1.773590 -0.000000 -5.458548
v -1.773590 -0.000000 -5.458548
v 1.659338 -0.640388 -5.106915
v -1.659338 -0.640388 -5.106915
v 1.430833 -0.640388 -4.403651
v -1.430833 -0.640388 -4.403651
v -1.107864 0.866025 -4.279755
v -1.004858 0.000000 -3.804226
v -1.107864 -0.866025 -4.279755
v -1.313876 -0.866026 -5.230811
v -1.416881 -0.000000 -5.706340
v -1.313876 0.866025 -5.230811
v -0.857972 0.866025 -4.279755
v -0.806469 -0.000000 -3.804226
v -0.857972 -0.866025 -4.279755
v -0.960977 -0.866026 -5.230811
v -1.012480 -0.000000 -5.706340
v -0.960977 0.866025 -5.230811
v 0.857971 0.866025 -4.279755
v 0.806468 -0.000000 -3.804227
v 0.857971 -0.866025 -4.279755
v 0.960977 -0.866026 -5.230811
v 1.012480 -0.000000 -5.706340
v 0.960976 0.866025 -5.230811
v 1.107863 0.866025 -4.279755
v 1.004858 0.000000 -3.804227
v 1.107864 -0.866025 -4.279755
v 1.313875 -0.866026 -5.230811
v 1.416881 -0.000000 -5.706340
v 1.313875 0.866025 -5.230812
v -1.169245 0.753206 -4.341702
v -1.060616 -0.000000 -3.928123
v -1.169245 -0.753206 -4.341702
v -1.386504 -0.753207 -5.168863
v -1.495132 -0.000000 -5.582444
v -1.386504 0.753206 -5.168863
v 1.169245 0.753206 -4.341703
v 1.060616 -0.000000 -3.928123
v 1.169245 -0.753206 -4.341702
v 1.386503 -0.753207 -5.168863
v 1.495132 -0.000000 -5.582444
v 1.386503 0.753206 -5.168864
v -0.806469 0.000000 -3.877154
v -0.857972 0.804404 -4.316218
v -0.857972 -0.804404 -4.316218
v -0.960977 -0.804404 -5.194347
v -1.012480 -0.000000 -5.633412
v -0.960977 0.804404 -5.194347
v 0.806468 0.000000 -3.877155
v 0.857971 0.804404 -4.316218
v 0.857971 -0.804404 -4.316218
v 0.960977 -0.804404 -5.194347
v 1.012480 -0.000000 -5.633412
v 0.960976 0.804404 -5.194347
v -0.001482 0.000000 -3.773458
v -0.704960 0.000000 -3.766886
v 0.000029 0.894468 -4.262855
v -0.756651 0.906076 -4.264647
v -0.001513 -0.894451 -4.262865
v -0.756651 -0.906075 -4.264647
v -0.001392 -0.894376 -5.247784
v -0.859724 -0.901106 -5.260458
v -0.001249 0.000000 -5.737075
v -0.911103 -0.000000 -5.749198
v -0.001392 0.894376 -5.247785
v -0.859724 0.901106 -5.260458
v 0.704959 -0.000000 -3.766886
v 0.756650 0.906076 -4.264647
v 0.756651 -0.906075 -4.264647
v 0.859723 -0.901106 -5.260458
v 0.911103 -0.000000 -5.749198
v 0.859723 0.901106 -5.260458
vt 0.200000 1.000000
vt 0.100000 1.000000
vt 0.100000 0.833333
vt 0.200000 0.833333
vt 0.100000 0.666667
vt 0.200000 0.666667
vt 0.100000 0.500000
vt 0.200000 0.500000
vt 0.100000 0.333333
vt 0.200000 0.333333
vt 0.100000 0.166667
vt 0.200000 0.166667
vt 0.100000 -0.000000
vt 0.200000 -0.000000
vt 0.000000 0.000000
vt 1.000000 0.000000
vt 1.000000 1.000000
vt 0.000000 1.000000
vt 0.000000 0.000000
vt 1.000000 0.000000
vt 1.000000 1.000000
vt 0.000000 1.000000
vt 0.000000 0.000000
vt 1.000000 0.000000
vt 1.000000 1.000000
vt 0.000000 1.000000
vt 0.000000 0.000000
vt 1.000000 0.000000
vt 1.000000 1.000000
vt 0.000000 1.000000
vt 0.183333 0.833333
vt 0.183333 -0.000000
vt 0.183333 1.000000
vt 0.183333 0.166667
vt 0.183333 0.333333
vt 0.183333 0.500000
vt 0.183333 0.666667
vt 0.166667 0.833333
vt 0.166667 -0.000000
vt 0.166667 1.000000
vt 0.166667 0.166667
vt 0.166667 0.333333
vt 0.166667 0.500000
vt 0.166667 0.666667
vt 0.150000 0.833333
vt 0.150000 -0.000000
vt 0.150000 1.000000
vt 0.150000 0.166667
vt 0.150000 0.333333
vt 0.150000 0.500000
vt 0.150000 0.666667
vt 0.133333 0.833333
vt 0.133333 -0.000000
vt 0.133333 1.000000
vt 0.133333 0.166667
vt 0.133333 0.333333
vt 0.133333 0.500000
vt 0.133333 0.666667
vt 0.116667 0.833333
vt 0.116667 -0.000000
vt 0.116667 1.000000
vt 0.116667 0.166667
vt 0.116667 0.333333
vt 0.116667 0.500000
vt 0.116667 0.666667
vt 0.191667 0.833333
vt 0.191667 -0.000000
vt 0.191667 1.000000
vt 0.191667 0.166667
vt 0.191667 0.333333
vt 0.191667 0.500000
vt 0.191667 0.666667
vt 0.108333 0.833333
vt 0.108333 -0.000000
vt 0.108333 1.000000
vt 0.108333 0.166667
vt 0.108333 0.333333
vt 0.108333 0.500000
vt 0.108333 0.666667
vt 0.166667 0.833333
vt 0.166667 1.000000
vt 0.166667 -0.000000
vt 0.166667 0.166667
vt 0.166667 0.333333
vt 0.166667 0.500000
vt 0.166667 0.666667
vt 0.133333 1.000000
vt 0.133333 0.833333
vt 0.133333 0.166667
vt 0.133333 -0.000000
vt 0.133333 0.333333
vt 0.133333 0.500000
vt 0.133333 0.666667
vt 0.166667 0.833333
vt 0.166667 1.000000
vt 0.166667 -0.000000
vt 0.166667 0.166667
vt 0.166667 0.333333
vt 0.166667 0.500000
vt 0.166667 0.666667
vt 0.133333 1.000000
vt 0.133333 0.833333
vt 0.133333 0.166667
vt 0.133333 -0.000000
vt 0.133333 0.333333
vt 0.133333 0.500000
vt 0.133333 0.666667
vn 0.385573 0.395950 0.833401
vn 0.385573 0.395950 0.833401
vn 0.385573 0.395950 0.833401
vn 0.385573 0.395950 0.833401
vn 0.386489 0.915398 0.112571
vn 0.386489 0.915398 0.112571
vn 0.386489 0.915398 0.112571
vn 0.386489 0.915398 0.112571
vn 0.366841 0.492147 -0.789442
vn 0.366841 0.492147 -0.789442
vn 0.366841 0.492147 -0.789442
vn 0.366841 0.492147 -0.789442
vn 0.366839 -0.492147 -0.789443
vn 0.366839 -0.492147 -0.789443
vn 0.366839 -0.492147 -0.789443
vn 0.366839 -0.492147 -0.789443
vn 0.386489 -0.915398 0.112572
vn 0.386489 -0.915398 0.112572
vn 0.386489 -0.915398 0.112572
vn 0.386489 -0.915398 0.112572
vn 0.385572 -0.395949 0.833402
vn 0.385572 -0.395949 0.833402
vn 0.385572 -0.395949 0.833402
vn 0.385572 -0.395949 0.833402
vn 0.951057 0.000001 0.309017
vn 0.951057 0.000001 0.309017
vn 0.951057 0.000001 0.309017
vn 0.951057 0.000001 0.309017
vn -0.951057 -0.000000 0.309017
vn -0.951057 -0.000000 0.309017
vn -0.951056 -0.000000 0.309017
vn -0.951057 -0.000000 0.309017
vn 0.951057 0.000000 0.309017
vn 0.951057 0.000000 0.309017
vn 0.951057 0.000000 0.309017
vn 0.951057 0.000000 0.309017
vn -0.951056 0.000000 0.309017
vn -0.951056 0.000000 0.309017
vn -0.951057 0.000000 0.309017
vn -0.951057 0.000000 0.309017
vn -0.873913 0.141178 0.465130
vn -0.873913 0.141178 0.465130
vn -0.873912 0.141178 0.465130
vn -0.873913 0.141178 0.465130
vn -0.873913 -0.141178 0.465130
vn -0.873913 -0.141178 0.465130
vn -0.873913 -0.141178 0.465130
vn -0.873913 -0.141178 0.465130
vn -0.842334 -0.500272 0.200501
vn -0.842334 -0.500272 0.200501
vn -0.842334 -0.500272 0.200501
vn -0.842334 -0.500272 0.200501
vn -0.819571 -0.354354 -0.450262
vn -0.819571 -0.354354 -0.450262
vn -0.819571 -0.354354 -0.450262
vn -0.819571 -0.354354 -0.450262
vn -0.819574 0.354352 -0.450260
vn -0.819574 0.354352 -0.450260
vn -0.819574 0.354352 -0.450260
vn -0.819574 0.354352 -0.450260
vn -0.842334 0.500272 0.200501
vn -0.842334 0.500272 0.200501
vn -0.842334 0.500272 0.200501
vn -0.842334 0.500272 0.200501
vn 0.000000 0.481308 0.876552
vn 0.000000 0.481308 0.876552
vn 0.000000 0.481308 0.876552
vn 0.000000 0.481308 0.876551
vn 0.000000 -0.481308 0.876551
vn 0.000000 -0.481308 0.876552
vn 0.000000 -0.481308 0.876551
vn 0.000000 -0.481308 0.876552
vn 0.000000 -1.000000 0.000000
vn 0.000000 -1.000000 0.000000
vn 0.000000 -1.000000 0.000000
vn 0.000000 -1.000000 0.000000
vn 0.000000 -0.481308 -0.876551
vn 0.000000 -0.481308 -0.876551
vn 0.000000 -0.481308 -0.876551
vn 0.000000 -0.481308 -0.876551
vn 0.000000 0.481308 -0.876551
vn 0.000000 0.481308 -0.876551
vn 0.000000 0.481308 -0.876551
vn 0.000000 0.481308 -0.876551
vn 0.000000 1.000000 0.000000
vn 0.000000 1.000000 0.000000
vn 0.000000 1.000000 0.000000
vn 0.000000 1.000000 0.000000
vn 0.006692 0.480876 0.876763
vn 0.000007 0.480891 0.876780
vn -0.000006 0.480891 0.876780
vn 0.006692 0.480876 0.876763
vn 0.006711 -0.480889 0.876756
vn 0.000000 -0.480899 0.876776
vn -0.000000 -0.480899 0.876776
vn 0.006711 -0.480889 0.876756
vn 0.011403 -0.999930 -0.003139
vn -0.000001 -0.999995 -0.003139
vn 0.000001 -0.999995 -0.003139
vn 0.011403 -0.999930 -0.003139
vn 0.014136 -0.477995 -0.878249
vn -0.000001 -0.478042 -0.878337
vn 0.000002 -0.478042 -0.878337
vn 0.014136 -0.477995 -0.878249
vn 0.014136 0.477995 -0.878249
vn 0.000002 0.478042 -0.878337
vn -0.000001 0.478042 -0.878337
vn 0.014136 0.477995 -0.878249
vn 0.011382 0.999930 -0.003156
vn 0.011382 0.999930 -0.003156
vn -0.000010 0.999995 -0.003147
vn 0.000011 0.999995 -0.003147
vn -0.006678 0.480885 0.876758
vn -0.006678 0.480885 0.876758
vn -0.006684 -0.480888 0.876757
vn -0.006684 -0.480888 0.876757
vn -0.011362 -0.999931 -0.003139
vn -0.011362 -0.999931 -0.003139
vn -0.014093 -0.477994 -0.878250
vn -0.014093 -0.477994 -0.878250
vn -0.014093 0.477994 -0.878250
vn -0.014093 0.477994 -0.878250
vn -0.011362 0.999931 -0.003139
vn -0.011362 0.999931 -0.003139
vn 0.000000 0.481308 0.876552
vn 0.000000 0.481308 0.876552
vn 0.000000 0.481308 0.876552
vn 0.000000 0.481308 0.876552
vn 0.000000 -0.481308 0.876552
vn 0.000000 -0.481308 0.876552
vn 0.000000 -0.481308 0.876552
vn 0.000000 -0.481308 0.876552
vn 0.000000 -1.000000 0.000000
vn 0.000000 -1.000000 0.000000
vn 0.000000 -1.000000 0.000000
vn 0.000000 -1.000000 0.000000
vn 0.000000 -0.481308 -0.876551
vn 0.000000 -0.481308 -0.876551
vn 0.000000 -0.481308 -0.876551
vn 0.000000 -0.481308 -0.876551
vn 0.000000 0.481308 -0.876551
vn 0.000000 0.481308 -0.876552
vn 0.000000 0.481308 -0.876552
vn 0.000000 0.481308 -0.876552
vn -0.000000 1.000000 -0.000000
vn -0.000000 1.000000 -0.000000
vn -0.000000 1.000000 -0.000000
vn -0.000000 1.000000 -0.000000
vn -0.385572 0.395949 0.833402
vn -0.385572 0.395949 0.833402
vn -0.385572 0.395949 0.833402
vn -0.385572 0.395949 0.833402
vn -0.385572 -0.395949 0.833402
vn -0.385572 -0.395949 0.833402
vn -0.385572 -0.395949 0.833402
vn -0.385572 -0.395949 0.833402
vn -0.386489 -0.915398 0.112572
vn -0.386489 -0.915398 0.112572
vn -0.386489 -0.915398 0.112572
vn -0.386489 -0.915398 0.112572
vn -0.366842 -0.492147 -0.789442
vn -0.366842 -0.492147 -0.789442
vn -0.366842 -0.492147 -0.789442
vn -0.366842 -0.492147 -0.789442
vn -0.366840 0.492147 -0.789442
vn -0.366840 0.492147 -0.789442
vn -0.366840 0.492147 -0.789442
vn -0.366840 0.492147 -0.789442
vn -0.386489 0.915398 0.112572
vn -0.386489 0.915398 0.112572
vn -0.386489 0.915398 0.112572
vn -0.386489 0.915398 0.112572
vn 0.873911 0.141180 0.465132
vn 0.873911 0.141180 0.465132
vn 0.873911 0.141180 0.465132
vn 0.873911 0.141180 0.465132
vn 0.873911 -0.141180 0.465131
vn 0.873911 -0.141180 0.465131
vn 0.873911 -0.141180 0.465131
vn 0.873911 -0.141180 0.465131
vn 0.842334 -0.500273 0.200501
vn 0.842334 -0.500273 0.200501
vn 0.842334 -0.500273 0.200501
vn 0.842334 -0.500273 0.200501
vn 0.819571 -0.354355 -0.450262
vn 0.819571 -0.354355 -0.450262
vn 0.819571 -0.354355 -0.450262
vn 0.819571 -0.354355 -0.450262
vn 0.819571 0.354355 -0.450262
vn 0.819571 0.354355 -0.450262
vn 0.819571 0.354355 -0.450262
vn 0.819571 0.354355 -0.450262
vn 0.842334 0.500273 0.200501
vn 0.842334 0.500273 0.200501
vn 0.842334 0.500273 0.200501
vn 0.842334 0.500273 0.200501
vn 0.997379 0.024164 -0.068197
vn 0.999648 0.000000 -0.026539
vn 0.999648 0.000000 -0.026539
vn 0.997385 0.024225 -0.068085
vn 0.997379 -0.024163 -0.068196
vn 0.997385 -0.024224 -0.068085
vn 0.997379 0.024164 -0.068197
vn 0.997385 0.024225 -0.068086
vn 0.999648 -0.000000 -0.026539
vn 0.999648 -0.000000 -0.026539
vn 0.997379 -0.024163 -0.068197
vn 0.997385 -0.024225 -0.068085
vn -0.999648 -0.000000 -0.026539
vn -0.997379 0.024163 -0.068197
vn -0.997385 0.024225 -0.068085
vn -0.999648 -0.000000 -0.026539
vn -0.997379 -0.024164 -0.068197
vn -0.997385 -0.024225 -0.068085
vn -0.997379 0.024164 -0.068197
vn -0.997385 0.024225 -0.068086
vn -0.999648 0.000000 -0.026539
vn -0.999648 0.000000 -0.026539
vn -0.997379 -0.024164 -0.068197
vn -0.997385 -0.024225 -0.068085
vn -0.683616 0.318435 0.656710
vn -0.683616 0.318435 0.656710
vn -0.683616 0.318435 0.656710
vn -0.683616 0.318435 0.656710
vn -0.683616 -0.318436 0.656710
vn -0.683616 -0.318436 0.656710
vn -0.683616 -0.318436 0.656710
vn -0.683616 -0.318436 0.656710
vn -0.694979 -0.715157 0.074531
vn -0.694979 -0.715157 0.074531
vn -0.694979 -0.715157 0.074531
vn -0.694979 -0.715157 0.074531
vn -0.712217 -0.368113 -0.597696
vn -0.712217 -0.368113 -0.597696
vn -0.712217 -0.368113 -0.597696
vn -0.712217 -0.368113 -0.597696
vn -0.712216 0.368113 -0.597697
vn -0.712216 0.368113 -0.597697
vn -0.712216 0.368113 -0.597697
vn -0.712216 0.368113 -0.597697
vn -0.694979 0.715157 0.074531
vn -0.694979 0.715157 0.074531
vn -0.694979 0.715157 0.074531
vn -0.694979 0.715157 0.074531
vn 0.683614 0.318436 0.656712
vn 0.683614 0.318436 0.656712
vn 0.683614 0.318436 0.656711
vn 0.683614 0.318436 0.656712
vn 0.683616 -0.318435 0.656710
vn 0.683616 -0.318435 0.656710
vn 0.683616 -0.318435 0.656710
vn 0.683616 -0.318435 0.656710
vn 0.694980 -0.715156 0.074531
vn 0.694980 -0.715156 0.074531
vn 0.694980 -0.715156 0.074531
vn 0.694980 -0.715156 0.074531
vn 0.712212 -0.368115 -0.597700
vn 0.712212 -0.368115 -0.597700
vn 0.712212 -0.368115 -0.597700
vn 0.712212 -0.368115 -0.597700
vn 0.712215 0.368113 -0.597697
vn 0.712215 0.368113 -0.597697
vn 0.712215 0.368113 -0.597697
vn 0.712215 0.368113 -0.597697
vn 0.694979 0.715157 0.074531
vn 0.694979 0.715157 0.074531
vn 0.694979 0.715157 0.074531
vn 0.694979 0.715157 0.074531
s off
g Wall polySurface1 pTorus1
usemtl blinn2SG
f 44/75/1 1/2/2 2/3/3 43/73/4
f 48/79/5 43/73/6 2/3/7 5/5/8
f 48/79/9 5/5/10 7/7/11 47/78/12
f 47/78/13 7/7/14 9/9/15 46/77/16
f 46/77/17 9/9/18 11/11/19 45/76/20
f 45/76/21 11/11/22 1/13/23 44/74/24
f 5/15/25 2/16/26 1/17/27 7/18/28
f 3/19/29 6/20/30 8/21/31 4/22/32
f 7/23/33 1/24/34 11/25/35 9/26/36
f 4/27/37 8/28/38 10/29/39 12/30/40
f 38/68/41 14/33/42 13/31/43 37/66/44
f 39/69/45 15/34/46 14/32/47 38/67/48
f 40/70/49 16/35/50 15/34/51 39/69/52
f 41/71/53 17/36/54 16/35/55 40/70/56
f 42/72/57 18/37/58 17/36/59 41/71/60
f 42/72/61 37/66/62 13/31/63 18/37/64
f 14/33/65 20/40/66 19/38/67 13/31/68
f 15/34/69 21/41/70 20/39/71 14/32/72
f 16/35/73 22/42/74 21/41/75 15/34/76
f 17/36/77 23/43/78 22/42/79 16/35/80
f 18/37/81 24/44/82 23/43/83 17/36/84
f 18/37/85 13/31/86 19/38/87 24/44/88
s 1
usemtl blinn1SG
f 62/95/89 61/47/90 63/45/91 64/94/92
s 2
f 66/97/93 65/48/94 61/46/95 62/96/96
s 3
f 68/98/97 67/49/98 65/48/99 66/97/100
s 4
f 70/99/101 69/50/102 67/49/103 68/98/104
s 5
f 72/100/105 71/51/106 69/50/107 70/99/108
s 6
f 72/100/109 64/94/110 63/45/111 71/51/112
s 1
f 61/47/90 73/101/113 74/102/114 63/45/91
s 2
f 65/48/94 75/103/115 73/104/116 61/46/95
s 3
f 67/49/98 76/105/117 75/103/118 65/48/99
s 4
f 69/50/102 77/106/119 76/105/120 67/49/103
s 5
f 71/51/106 78/107/121 77/106/122 69/50/107
s 6
f 71/51/112 63/45/111 74/102/123 78/107/124
s off
usemtl blinn2SG
f 26/54/125 32/61/126 31/59/127 25/52/128
f 27/55/129 33/62/130 32/60/131 26/53/132
f 28/56/133 34/63/134 33/62/135 27/55/136
f 29/57/137 35/64/138 34/63/139 28/56/140
f 30/58/141 36/65/142 35/64/143 29/57/144
f 30/58/145 25/52/146 31/59/147 36/65/148
f 4/1/149 38/68/150 37/66/151 3/4/152
f 12/12/153 39/69/154 38/67/155 4/14/156
f 10/10/157 40/70/158 39/69/159 12/12/160
f 8/8/161 41/71/162 40/70/163 10/10/164
f 6/6/165 42/72/166 41/71/167 8/8/168
f 3/4/169 37/66/170 42/72/171 6/6/172
f 32/61/173 44/75/174 43/73/175 31/59/176
f 33/62/177 45/76/178 44/74/179 32/60/180
f 34/63/181 46/77/182 45/76/183 33/62/184
f 35/64/185 47/78/186 46/77/187 34/63/188
f 36/65/189 48/79/190 47/78/191 35/64/192
f 36/65/193 31/59/194 43/73/195 48/79/196
s 7
f 19/38/197 20/40/198 49/81/199 50/80/200
f 20/39/198 21/41/201 51/83/202 49/82/199
f 21/41/201 22/42/203 52/84/204 51/83/202
f 22/42/203 23/43/205 53/85/206 52/84/204
f 23/43/205 24/44/207 54/86/208 53/85/206
f 24/44/207 19/38/197 50/80/200 54/86/208
s 8
f 26/54/209 25/52/210 56/88/211 55/87/212
f 27/55/213 26/53/209 55/90/212 57/89/214
f 28/56/215 27/55/213 57/89/214 58/91/216
f 29/57/217 28/56/215 58/91/216 59/92/218
f 30/58/219 29/57/217 59/92/218 60/93/220
f 25/52/210 30/58/219 60/93/220 56/88/211
s off
f 50/80/221 49/81/222 62/95/223 64/94/224
f 49/82/225 51/83/226 66/97/227 62/96/228
f 51/83/229 52/84/230 68/98/231 66/97/232
f 52/84/233 53/85/234 70/99/235 68/98/236
f 53/85/237 54/86/238 72/100/239 70/99/240
f 54/86/241 50/80/242 64/94/243 72/100/244
f 55/87/245 56/88/246 74/102/247 73/101/248
f 57/89/249 55/90/250 73/104/251 75/103/252
f 58/91/253 57/89/254 75/103/255 76/105/256
f 59/92/257 58/91/258 76/105/259 77/106/260
f 60/93/261 59/92/262 77/106/263 78/107/264
f 56/88/265 60/93/266 78/107/267 74/102/268
